<svg xmlns="http://www.w3.org/2000/svg" viewBox="0 0 800 600" width="800" height="600">
  <defs>
    <linearGradient id="eqgrad" x1="0%" y1="0%" x2="100%" y2="100%">
      <stop offset="0%" stop-color="#F8FAFC"/>
      <stop offset="100%" stop-color="#E2E8F0"/>
    </linearGradient>
    <filter id="eqshadow" x="-5%" y="-5%" width="110%" height="110%">
      <feDropShadow dx="0" dy="8" stdDeviation="12" flood-color="#0F172A" flood-opacity="0.08"/>
    </filter>
  </defs>
  <rect width="800" height="600" fill="url(#eqgrad)"/>
  <rect x="250" y="140" width="300" height="220" rx="16" fill="#0F172A" filter="url(#eqshadow)"/>
  <rect x="270" y="160" width="260" height="150" rx="8" fill="#022C22"/>
  <path d="M280 235 L320 235 L330 200 L340 270 L350 180 L360 250 L370 235 L430 235 L440 200 L450 270 L460 180 L470 250 L480 235 L520 235" stroke="#22C55E" stroke-width="3.5" fill="none" stroke-linecap="round"/>
  <text x="285" y="185" font-family="monospace" font-weight="700" font-size="14" fill="#4ADE80">HR: 72 bpm</text>
  <text x="440" y="185" font-family="monospace" font-weight="700" font-size="14" fill="#38BDF8">BP: 120/80</text>
  <circle cx="310" cy="335" r="8" fill="#38BDF8"/>
  <circle cx="340" cy="335" r="8" fill="#22C55E"/>
  <circle cx="370" cy="335" r="8" fill="#F59E0B"/>
  <rect x="380" y="360" width="40" height="150" fill="#64748B"/>
  <polygon points="300,510 500,510 520,540 280,540" fill="#334155"/>
  <g transform="translate(470, 70)">
    <rect width="280" height="64" rx="32" fill="#FFFFFF" filter="url(#eqshadow)"/>
    <circle cx="34" cy="32" r="18" fill="#DCFCE7"/>
    <path d="M26 32 L31 37 L42 26" stroke="#16A34A" stroke-width="3.5" fill="none"/>
    <text x="64" y="30" font-family="'Poppins', sans-serif" font-weight="700" font-size="13" fill="#0F172A">Advanced Diagnostics</text>
    <text x="64" y="47" font-family="'Inter', sans-serif" font-weight="500" font-size="11" fill="#64748B">12-Lead ECG &amp; Rapid Labs</text>
  </g>
</svg>
